<?xml version="1.0" encoding="UTF-8" standalone="no"?>
<!-- Created with Inkscape (http://www.inkscape.org/) -->

<svg
   width="14mm"
   height="2mm"
   viewBox="0 0 14 2"
   version="1.1"
   id="svg5"
   inkscape:version="1.2.2 (b0a8486541, 2022-12-01)"
   sodipodi:docname="picofusion-h20.svg"
   inkscape:export-filename="picofusion-h20.png"
   inkscape:export-xdpi="2540"
   inkscape:export-ydpi="2540"
   xml:space="preserve"
   xmlns:inkscape="http://www.inkscape.org/namespaces/inkscape"
   xmlns:sodipodi="http://sodipodi.sourceforge.net/DTD/sodipodi-0.dtd"
   xmlns="http://www.w3.org/2000/svg"
   xmlns:svg="http://www.w3.org/2000/svg"><sodipodi:namedview
     id="namedview7"
     pagecolor="#505050"
     bordercolor="#eeeeee"
     borderopacity="1"
     inkscape:showpageshadow="0"
     inkscape:pageopacity="0"
     inkscape:pagecheckerboard="0"
     inkscape:deskcolor="#505050"
     inkscape:document-units="mm"
     showgrid="false"
     inkscape:zoom="23.049355"
     inkscape:cx="16.941906"
     inkscape:cy="9.3495026"
     inkscape:window-width="1906"
     inkscape:window-height="1008"
     inkscape:window-x="0"
     inkscape:window-y="0"
     inkscape:window-maximized="1"
     inkscape:current-layer="layer2" /><defs
     id="defs2" /><g
     inkscape:label="Source"
     inkscape:groupmode="layer"
     id="layer1"
     style="display:none"><rect
       style="display:inline;fill:#0003ff;fill-opacity:1;stroke:none;stroke-width:0.261911;stroke-miterlimit:9.99921"
       id="rect12937"
       width="11.142807"
       height="1.5776453"
       x="0.64307702"
       y="0.2891902"
       transform="matrix(1,0,-0.31517405,0.94903388,0,0)" /><text
       xml:space="preserve"
       style="font-style:normal;font-variant:normal;font-weight:normal;font-stretch:normal;font-size:1.41111px;line-height:1.25;font-family:'Red Hat Display';-inkscape-font-specification:'Red Hat Display, Normal';font-variant-ligatures:normal;font-variant-caps:normal;font-variant-numeric:normal;font-variant-east-asian:normal;display:inline;fill:#ff0000;fill-opacity:1;stroke:none;stroke-width:0.264583"
       x="0.70574373"
       y="1.5143496"
       id="text79-0"><tspan
         sodipodi:role="line"
         id="tspan77-4"
         style="font-style:normal;font-variant:normal;font-weight:bold;font-stretch:normal;font-size:1.41111px;font-family:'Red Hat Display';-inkscape-font-specification:'Red Hat Display, Normal';font-variant-ligatures:normal;font-variant-caps:normal;font-variant-numeric:normal;font-variant-east-asian:normal;fill:#ff0000;fill-opacity:1;stroke-width:0.264583"
         x="0.70574373"
         y="1.5143496">PicoFusion H20</tspan></text></g><g
     inkscape:groupmode="layer"
     id="layer2"
     inkscape:label="Mask"
     style="display:inline"><path
       id="rect13823"
       style="display:inline;fill:#000000;fill-opacity:1;stroke:none;stroke-width:0.261911;stroke-miterlimit:9.99921"
       d="M 0.64303312 0.2891381 L 0.64308138 1.8666015 L 11.785554 1.8666015 L 11.786022 0.2891381 L 0.64303312 0.2891381 z M 1.9951625 0.49659878 C 2.0558399 0.49659878 2.1216368 0.54864457 2.1417878 0.61258073 C 2.1614702 0.67502998 2.1289493 0.72856268 2.0682715 0.72856268 C 2.007594 0.72856268 1.9413286 0.67503 1.9216462 0.61258073 C 1.9014952 0.54864459 1.9344846 0.49659878 1.9951625 0.49659878 z M 6.3065273 0.49659878 C 6.3672047 0.49659878 6.4330015 0.54864457 6.4531526 0.61258073 C 6.4728349 0.67502998 6.4403141 0.72856268 6.3796363 0.72856268 C 6.3189588 0.72856268 6.2526933 0.67503 6.233011 0.61258073 C 6.2128599 0.54864459 6.2458494 0.49659878 6.3065273 0.49659878 z M 9.9169382 0.53852652 C 9.9209861 0.53841911 9.9252396 0.53852652 9.9293406 0.53852652 C 10.129718 0.53852652 10.303772 0.65751033 10.358601 0.83147624 C 10.389999 0.93109775 10.378252 1.009998 10.312278 1.1140801 L 10.112781 1.4304441 L 10.56254 1.429355 L 10.614883 1.5954325 L 9.9265531 1.5954325 L 9.8826191 1.4560363 L 10.155642 1.0155227 C 10.194288 0.95009964 10.200302 0.90144424 10.182026 0.8434556 C 10.157657 0.76613741 10.070162 0.70787106 9.9770292 0.70787106 C 9.8867184 0.70787106 9.8273284 0.74364532 9.7646615 0.83583237 L 9.6180572 0.70188138 C 9.6915432 0.59673055 9.7914551 0.54185609 9.9169382 0.53852652 z M 10.803189 0.53852652 C 10.80715 0.53842167 10.81104 0.53852652 10.815075 0.53852652 C 11.074718 0.53852652 11.318181 0.75425166 11.419405 1.0754195 C 11.520629 1.3965873 11.412976 1.611768 11.153332 1.611768 C 10.8951 1.611768 10.652465 1.3965873 10.551241 1.0754195 C 10.451599 0.75926991 10.553657 0.54513227 10.803189 0.53852652 z M 0.96966164 0.55486201 L 1.4647219 0.55486201 C 1.6594548 0.55486201 1.8391735 0.69030768 1.8996266 0.88211625 C 1.9582052 1.0679773 1.8610289 1.2033808 1.6691182 1.2033808 L 1.3786966 1.2033808 L 1.5022611 1.5954325 L 1.2976224 1.5954325 L 0.96966164 0.55486201 z M 3.8733604 0.55486201 L 4.637138 0.55486201 L 4.6961744 0.74217558 L 4.1370354 0.74217558 L 4.2144349 0.98775239 L 4.5859884 0.98775239 L 4.643137 1.1690763 L 4.2715834 1.1690763 L 4.4059598 1.5954325 L 4.2013212 1.5954325 L 3.8733604 0.55486201 z M 8.5753989 0.55486201 L 8.7800376 0.55486201 L 8.912183 0.97413948 L 9.3664188 0.97413948 L 9.2342735 0.55486201 L 9.4389121 0.55486201 L 9.7668729 1.5954325 L 9.5622343 1.5954325 L 9.4278579 1.1690763 L 8.973622 1.1690763 L 9.1079984 1.5954325 L 8.9033597 1.5954325 L 8.5753989 0.55486201 z M 10.864132 0.71549429 C 10.719893 0.71973482 10.670092 0.85733483 10.738826 1.0754195 C 10.808652 1.2969658 10.948151 1.4353447 11.097728 1.4353447 C 11.248712 1.4353447 11.301128 1.2969658 11.231303 1.0754195 C 11.161477 0.85387317 11.021838 0.71549429 10.87085 0.71549429 C 10.868513 0.71549429 10.866422 0.71542698 10.864132 0.71549429 z M 1.2328218 0.74054203 L 1.3224061 1.0247795 L 1.5906068 1.0247795 C 1.6795061 1.0247795 1.7189424 0.96795793 1.6922306 0.88320528 C 1.6650501 0.79696578 1.5899223 0.74054203 1.5010225 0.74054203 L 1.2328218 0.74054203 z M 2.6926046 0.80588398 C 2.8097264 0.80588398 2.9372374 0.85646468 3.0410863 0.94419109 L 2.9639335 1.0765085 C 2.890629 1.0140591 2.8216581 0.98285174 2.7525143 0.98285174 C 2.6410371 0.98285174 2.5860295 1.0809535 2.6263316 1.208826 C 2.6666336 1.3366984 2.7839331 1.4320776 2.8982328 1.4320776 C 2.9645548 1.4320776 3.0128344 1.4055191 3.0463003 1.346044 L 3.2023856 1.4740054 C 3.1533662 1.5602446 3.0591436 1.6106789 2.946255 1.6106789 C 2.7289446 1.6106789 2.5053268 1.434833 2.4340952 1.208826 C 2.3628637 0.98281893 2.4752941 0.80588398 2.6926046 0.80588398 z M 3.4289937 0.80588398 C 3.6491264 0.80588398 3.8769831 0.98281893 3.9482147 1.208826 C 4.0194462 1.434833 3.9027769 1.6106789 3.6826442 1.6106789 C 3.4625114 1.6106789 3.234998 1.434833 3.1637665 1.208826 C 3.0925349 0.98281893 3.2088609 0.80588398 3.4289937 0.80588398 z M 7.0106872 0.80588398 C 7.2308199 0.80588398 7.4586767 0.98281893 7.5299082 1.208826 C 7.6011398 1.434833 7.4844704 1.6106789 7.2643377 1.6106789 C 7.0442049 1.6106789 6.8166915 1.434833 6.74546 1.208826 C 6.6742284 0.98281893 6.7905545 0.80588398 7.0106872 0.80588398 z M 7.9207092 0.80588398 C 8.0914532 0.80588398 8.2514849 0.93228201 8.3091262 1.1151692 L 8.4604927 1.5954325 L 8.2667061 1.5954325 L 8.1247785 1.1451176 C 8.0933804 1.045496 8.0144974 0.98176271 7.9213646 0.98176271 C 7.856454 0.98176271 7.8127245 1.0100166 7.7943223 1.059084 L 7.9633654 1.5954325 L 7.7700956 1.5954325 L 7.5260557 0.82113043 L 7.7193255 0.82113043 L 7.7388899 0.88320528 C 7.7779898 0.83265113 7.8402764 0.80588398 7.9207092 0.80588398 z M 5.8722535 0.80751753 C 5.8751372 0.80747051 5.8781061 0.80751753 5.8810385 0.80751753 C 5.9882827 0.80751753 6.1015039 0.84050525 6.2133768 0.90444141 L 6.1620622 1.0367588 C 6.0652271 0.98471782 5.9854484 0.96052658 5.9106595 0.96052658 C 5.8415156 0.96052658 5.8048719 0.9921522 5.8189307 1.0367588 C 5.832521 1.0798789 5.867275 1.1004025 5.942523 1.110813 L 6.0906359 1.1331382 C 6.2415985 1.1554414 6.346801 1.2343183 6.3847599 1.3547563 C 6.4311541 1.5019582 6.3288477 1.6106789 6.1439927 1.6106789 C 6.0099374 1.6106789 5.8780172 1.5732928 5.7727369 1.5034092 L 5.826294 1.3683692 C 5.9315855 1.4293322 6.0148852 1.4571254 6.092496 1.4571254 C 6.1785739 1.4571254 6.2249705 1.4249133 6.2090371 1.3743589 C 6.1963841 1.3342128 6.1608373 1.3118043 6.0940563 1.3013937 L 5.9459433 1.2790686 C 5.7935699 1.2567653 5.6913615 1.177993 5.6519967 1.0530943 C 5.6058661 0.90672873 5.6905813 0.81047985 5.8722535 0.80751753 z M 2.0018451 0.82113043 L 2.1951149 0.82113043 L 2.4391548 1.5954325 L 2.245885 1.5954325 L 2.0018451 0.82113043 z M 4.7773862 0.82113043 L 4.9706561 0.82113043 L 5.1125837 1.2714453 C 5.1439817 1.3710665 5.2249642 1.4353447 5.316686 1.4353447 C 5.3830077 1.4353447 5.4249488 1.4070912 5.4447618 1.3580234 L 5.2755471 0.82113043 L 5.4688169 0.82113043 L 5.7128568 1.5954325 L 5.519587 1.5954325 L 5.5000226 1.5333576 C 5.4609229 1.5839121 5.3984968 1.6106789 5.316653 1.6106789 C 5.1459091 1.6106789 4.9863941 1.484281 4.9287528 1.3013937 L 4.7773862 0.82113043 z M 6.312693 0.82113043 L 6.5059629 0.82113043 L 6.7500028 1.5954325 L 6.556733 1.5954325 L 6.312693 0.82113043 z M 3.4847694 0.98285174 C 3.3718807 0.98285174 3.3130687 1.0824404 3.3529022 1.208826 C 3.3927357 1.3352117 3.5125689 1.4337112 3.6268686 1.4337112 C 3.7411682 1.4337112 3.8004627 1.3352114 3.7606292 1.208826 C 3.7207958 1.0824405 3.5990691 0.98285174 3.4847694 0.98285174 z M 7.0664629 0.98285174 C 6.9535742 0.98285174 6.8947623 1.0824404 6.9345957 1.208826 C 6.9744292 1.3352117 7.0942624 1.4337112 7.2085621 1.4337112 C 7.3228618 1.4337112 7.3821562 1.3352114 7.3423228 1.208826 C 7.3024894 1.0824405 7.1807626 0.98285174 7.0664629 0.98285174 z "
       transform="matrix(1,0,-0.31517405,0.94903388,0,0)" /></g></svg>
